<svg id="Logo" xmlns="http://www.w3.org/2000/svg" viewBox="0 0 719.79 90.16"><title>logo_IntelliJIDEA</title><rect y="3.56" width="85.04" height="85.04"/><rect x="7.97" y="72.65" width="31.89" height="5.31" fill="#fff"/><rect x="10.87" y="14.19" width="4.67" height="21.22" fill="#fff"/><rect x="7.9" y="31.53" width="10.61" height="3.89" fill="#fff"/><rect x="7.9" y="14.19" width="10.61" height="3.89" fill="#fff"/><path d="M118.8,190.64a8.44,8.44,0,0,1-4.17-.94,9.78,9.78,0,0,1-2.77-2.24l2.94-3.27a8.46,8.46,0,0,0,1.83,1.56,3.87,3.87,0,0,0,2,.56,2.69,2.69,0,0,0,2.09-.83,3.92,3.92,0,0,0,.76-2.68V169.12h4.79V183a9.52,9.52,0,0,1-.52,3.3,6.46,6.46,0,0,1-1.49,2.36,6.27,6.27,0,0,1-2.38,1.47,9.34,9.34,0,0,1-3.14.5" transform="translate(-90.11 -154.92)" fill="#fff"/><path d="M196.21,158.57h18.71v85.05H196.21V158.57Z" transform="translate(-90.11 -154.92)"/><path d="M219.9,178.49h18.47v9.23c4.25-5.47,9.72-10.45,19.08-10.45,14,0,22.11,9.23,22.11,24.18v42.16H261.09V207.29c0-8.75-4.13-13.24-11.18-13.24s-11.54,4.5-11.54,13.24v36.33H219.9V178.49Z" transform="translate(-90.11 -154.92)"/><path d="M289.52,225.15V194.29h-7.78v-15.8h7.78V161.85H308v16.65H323.3v15.8H308v27.83c0,4.25,1.82,6.32,6,6.32a18.78,18.78,0,0,0,9.11-2.31v14.82a27.23,27.23,0,0,1-14.58,3.77C297.18,244.71,289.52,240.22,289.52,225.15Z" transform="translate(-90.11 -154.92)"/><path d="M322.81,211.42v-0.24c0-18.59,13.24-33.9,32.2-33.9,21.75,0,31.71,16.89,31.71,35.36,0,1.46-.12,3.16-0.24,4.86H341.16c1.82,8.38,7.66,12.76,15.92,12.76,6.2,0,10.69-1.94,15.8-6.68l10.57,9.36c-6.08,7.53-14.82,12.15-26.61,12.15C337.27,245.08,322.81,231.35,322.81,211.42ZM368.74,206c-1.09-8.26-6-13.85-13.73-13.85s-12.64,5.47-14.09,13.85h27.83Z" transform="translate(-90.11 -154.92)"/><path d="M390.24,154.92h18.47v88.7H390.24v-88.7Z" transform="translate(-90.11 -154.92)"/><path d="M412.59,154.92h18.47v88.7H412.59v-88.7Z" transform="translate(-90.11 -154.92)"/><path d="M435.68,154.92h19.44v16.4H435.68v-16.4Zm0.49,23.57h18.47v65.13H436.16V178.49Z" transform="translate(-90.11 -154.92)"/><path d="M456,232.08L467.75,219c4.86,5.35,9.6,8.51,15.55,8.51,7,0,11.42-4.25,11.42-14.09v-54.8h19.2v55.65c0,10.08-2.92,17.62-8,22.72s-12.88,7.9-22.11,7.9C470.55,244.84,461.8,239,456,232.08Z" transform="translate(-90.11 -154.92)"/><path d="M544.54,158.57h18.71v85.05H544.54V158.57Z" transform="translate(-90.11 -154.92)"/><path d="M569.93,158.57H603.1c26.73,0,45.2,18.35,45.2,42.28v0.24c0,23.94-18.47,42.53-45.2,42.53H569.93V158.57Zm18.71,16.89v51.28H603.1c15.31,0,25.64-10.33,25.64-25.4v-0.24c0-15.07-10.33-25.64-25.64-25.64H588.64Z" transform="translate(-90.11 -154.92)"/><path d="M652.43,158.57h64.16v16.65H671v17.25h40.1v16.65H671V227h46.17v16.65H652.43V158.57Z" transform="translate(-90.11 -154.92)"/><path d="M756.19,158h17.25l36.45,85.66H790.33l-7.78-19.08h-36l-7.78,19.08H719.74ZM775.87,208l-11.3-27.58L753.27,208h22.6Z" transform="translate(-90.11 -154.92)"/></svg>